<svg width="70" height="70" viewBox="0 0 70 70" fill="none" xmlns="http://www.w3.org/2000/svg">
<path d="M66.8213 51.8704L59.5314 44.4324C57.9633 42.9475 55.9854 41.9636 53.8517 41.6072C51.718 41.2508 49.5261 41.5383 47.5577 42.4326L44.3882 39.275C48.1231 34.3031 49.8288 28.1063 49.162 21.932C48.4951 15.7576 45.5052 10.0641 40.7941 5.9977C36.083 1.93129 30.0005 -0.206144 23.7711 0.0156886C17.5417 0.237521 11.628 2.80215 7.22033 7.19329C2.81268 11.5844 0.238414 17.476 0.0157476 23.6821C-0.206919 29.8881 1.93855 35.9478 6.02025 40.6413C10.102 45.3347 15.8168 48.3134 22.0144 48.9778C28.212 49.6422 34.4321 47.9429 39.4226 44.2219L42.5569 47.3445C41.5536 49.3079 41.194 51.5356 41.5288 53.7135C41.8637 55.8913 42.8761 57.9096 44.4234 59.4838L51.8894 66.9218C53.8703 68.8929 56.5556 70 59.3553 70C62.155 70 64.8403 68.8929 66.8213 66.9218C67.8275 65.9416 68.6271 64.7709 69.1729 63.4785C69.7188 62.1862 70 60.7982 70 59.3961C70 57.994 69.7188 56.606 69.1729 55.3137C68.6271 54.0213 67.8275 52.8507 66.8213 51.8704ZM36.9575 36.9944C34.4931 39.4434 31.3555 41.1097 27.9411 41.783C24.5266 42.4563 20.9884 42.1063 17.7735 40.7772C14.5586 39.4482 11.8112 37.1997 9.87829 34.3158C7.94543 31.432 6.91384 28.0421 6.91384 24.5744C6.91384 21.1067 7.94543 17.7169 9.87829 14.833C11.8112 11.9491 14.5586 9.70063 17.7735 8.37159C20.9884 7.04254 24.5266 6.69256 27.9411 7.36584C31.3555 8.03913 34.4931 9.70548 36.9575 12.1544C38.5973 13.7839 39.8983 15.7198 40.786 17.851C41.6736 19.9822 42.1306 22.267 42.1306 24.5744C42.1306 26.8819 41.6736 29.1666 40.786 31.2978C39.8983 33.4291 38.5973 35.3649 36.9575 36.9944ZM61.8557 61.7994C61.5283 62.1283 61.1388 62.3893 60.7097 62.5674C60.2805 62.7455 59.8202 62.8372 59.3553 62.8372C58.8904 62.8372 58.4301 62.7455 58.0009 62.5674C57.5718 62.3893 57.1823 62.1283 56.8549 61.7994L49.389 54.3614C49.0589 54.0353 48.7969 53.6472 48.6181 53.2197C48.4393 52.7921 48.3473 52.3336 48.3473 51.8704C48.3473 51.4072 48.4393 50.9487 48.6181 50.5211C48.7969 50.0936 49.0589 49.7056 49.389 49.3794C49.7164 49.0505 50.1059 48.7895 50.535 48.6114C50.9641 48.4333 51.4244 48.3416 51.8894 48.3416C52.3543 48.3416 52.8146 48.4333 53.2437 48.6114C53.6729 48.7895 54.0624 49.0505 54.3897 49.3794L61.8557 56.8174C62.1858 57.1435 62.4478 57.5316 62.6266 57.9591C62.8053 58.3867 62.8974 58.8452 62.8974 59.3084C62.8974 59.7716 62.8053 60.2301 62.6266 60.6577C62.4478 61.0852 62.1858 61.4733 61.8557 61.7994Z" fill="#0B021A"/>
</svg>
